# xmcd
#
# Track frame offsets:
#	150
#	18513
#	36994
#	54558
#	68746
#	83481
#	105939
#	124659
#	137873
#	153288
#	166636
#	182241
#	198994
#
# Disc length: 2981 seconds
#
# Revision: 1
# Processed by: cddbd v1.5.2PL0 Copyright (c) Steve Scherf et al.
# Submitted via: EasyCDDAExtractor 16.0.6.1
#
DISCID=a00ba30d
DTITLE=Alan Jackson -  C-095 Drive
DYEAR=1900
DGENRE=Country
TTITLE0=Drive (For Daddy Gene)
TTITLE1=Bring On The Night
TTITLE2=Designated Drinker
TTITLE3=When Love Comes Around
TTITLE4=First Love
TTITLE5=Where Were You (When The World Stopped Turning)
TTITLE6=Work In Progress
TTITLE7=A Little Bluer Than That
TTITLE8=The Sounds
TTITLE9=I Slipped And Fell In Love
TTITLE10=Once In A Lifetime
TTITLE11=That'd Be Alright
TTITLE12=Where Were You... (Live)
EXTD=
EXTT0=
EXTT1=
EXTT2=
EXTT3=
EXTT4=
EXTT5=
EXTT6=
EXTT7=
EXTT8=
EXTT9=
EXTT10=
EXTT11=
EXTT12=
PLAYORDER=
